<svg xmlns="http://www.w3.org/2000/svg" viewBox="47.56 166.77 566.68 112.36" width="567" height="112">
  <rect x="47.5625" y="166.769531" width="112.363281" height="112.363281" rx="16" fill="#0E0E12"/>
  <path fill="none" stroke-width="5.369175" stroke-linecap="round" stroke-linejoin="round" stroke="#FFFFFF" stroke-miterlimit="4" d="M 80.747266 194.873772 C 90.19626 213.77176 90.19626 232.673659 80.747266 251.571648 C 107.201321 251.571648 126.10322 242.122653 137.445142 223.224665 C 126.10322 204.322766 107.201321 194.873772 80.747266 194.873772 Z M 80.747266 194.873772 " transform="matrix(1.061208, 0, 0, 1.061208, -17.669845, -13.934438)"/>
  <path fill="none" stroke-width="5.369175" stroke-linecap="round" stroke-linejoin="round" stroke="#FFFFFF" stroke-miterlimit="4" d="M 148.07526 223.224665 C 148.07526 226.353471 145.533105 228.895626 142.404299 228.895626 C 139.271582 228.895626 136.733339 226.353471 136.733339 223.224665 C 136.733339 220.091948 139.271582 217.549793 142.404299 217.549793 C 145.533105 217.549793 148.07526 220.091948 148.07526 223.224665 Z M 148.07526 223.224665 " transform="matrix(1.061208, 0, 0, 1.061208, -17.669845, -13.934438)"/>
  <path fill="#0E0E12" d="M462 1456V0H111V1456ZM1331 1456 767 718 437 357 373 679 584 999 898 1456ZM916 0 540 656 813 857 1331 0Z" transform="translate(199.129,246.385) scale(0.032184,-0.032184)"/>
  <path fill="#0E0E12" d="M1302 778V180Q1265 139 1188.5 92.5Q1112 46 996.0 13.0Q880 -20 723 -20Q578 -20 460.0 26.5Q342 73 257.5 163.5Q173 254 127.5 385.5Q82 517 82 687V768Q82 938 128.0 1070.0Q174 1202 257.5 1292.5Q341 1383 454.5 1430.0Q568 1477 704 1477Q905 1477 1031.0 1413.5Q1157 1350 1222.0 1238.5Q1287 1127 1301 981H964Q954 1053 926.5 1103.5Q899 1154 848.0 1180.5Q797 1207 716 1207Q653 1207 601.5 1180.0Q550 1153 514.0 1098.5Q478 1044 458.5 962.0Q439 880 439 770V687Q439 578 457.5 496.0Q476 414 513.5 359.5Q551 305 609.5 277.5Q668 250 748 250Q804 250 844.0 259.5Q884 269 910.5 283.5Q937 298 951 311V537H707V778Z" transform="translate(241.290,246.385) scale(0.032184,-0.032184)"/>
  <path fill="#0E0E12" d="M169 1456H651Q815 1456 928.5 1406.0Q1042 1356 1101.5 1258.5Q1161 1161 1161 1019Q1161 919 1120.5 836.5Q1080 754 1004.5 696.5Q929 639 824 611L770 590H317L315 747H657Q761 747 830.0 783.5Q899 820 934.0 882.0Q969 944 969 1019Q969 1103 936.0 1166.0Q903 1229 832.5 1263.5Q762 1298 651 1298H362V0H169ZM1020 0 666 660 867 661 1226 12V0Z" transform="translate(302.569,246.385) scale(0.032184,-0.032184)"/>
  <path fill="#0E0E12" d="M1290 774V682Q1290 518 1249.0 388.0Q1208 258 1131.0 167.0Q1054 76 946.5 28.0Q839 -20 706 -20Q577 -20 469.5 28.0Q362 76 283.5 167.0Q205 258 162.0 388.0Q119 518 119 682V774Q119 938 161.5 1067.5Q204 1197 282.0 1288.5Q360 1380 467.5 1428.0Q575 1476 704 1476Q837 1476 944.5 1428.0Q1052 1380 1129.5 1288.5Q1207 1197 1248.5 1067.5Q1290 938 1290 774ZM1099 682V776Q1099 906 1072.5 1006.0Q1046 1106 995.0 1174.0Q944 1242 870.5 1277.0Q797 1312 704 1312Q614 1312 541.5 1277.0Q469 1242 417.5 1174.0Q366 1106 338.0 1006.0Q310 906 310 776V682Q310 551 338.0 450.5Q366 350 418.5 281.5Q471 213 543.5 178.0Q616 143 706 143Q800 143 873.0 178.0Q946 213 996.5 281.5Q1047 350 1073.0 450.5Q1099 551 1099 682Z" transform="translate(343.185,246.385) scale(0.032184,-0.032184)"/>
  <path fill="#0E0E12" d="M688 681H319L317 836H652Q735 836 797.0 864.0Q859 892 893.5 944.5Q928 997 928 1070Q928 1150 897.5 1200.5Q867 1251 804.5 1274.5Q742 1298 646 1298H362V0H169V1456H646Q758 1456 846.0 1433.5Q934 1411 995.5 1363.5Q1057 1316 1089.0 1243.0Q1121 1170 1121 1068Q1121 978 1075.0 905.5Q1029 833 947.5 787.0Q866 741 757 728ZM679 0H243L352 157H679Q771 157 835.5 189.0Q900 221 934.0 279.5Q968 338 968 418Q968 499 939.0 558.0Q910 617 848.0 649.0Q786 681 688 681H413L415 836H791L832 780Q937 771 1010.0 720.5Q1083 670 1121.5 592.0Q1160 514 1160 420Q1160 284 1100.5 190.5Q1041 97 933.0 48.5Q825 0 679 0Z" transform="translate(388.532,246.385) scale(0.032184,-0.032184)"/>
  <path fill="#0E0E12" d="M1290 774V682Q1290 518 1249.0 388.0Q1208 258 1131.0 167.0Q1054 76 946.5 28.0Q839 -20 706 -20Q577 -20 469.5 28.0Q362 76 283.5 167.0Q205 258 162.0 388.0Q119 518 119 682V774Q119 938 161.5 1067.5Q204 1197 282.0 1288.5Q360 1380 467.5 1428.0Q575 1476 704 1476Q837 1476 944.5 1428.0Q1052 1380 1129.5 1288.5Q1207 1197 1248.5 1067.5Q1290 938 1290 774ZM1099 682V776Q1099 906 1072.5 1006.0Q1046 1106 995.0 1174.0Q944 1242 870.5 1277.0Q797 1312 704 1312Q614 1312 541.5 1277.0Q469 1242 417.5 1174.0Q366 1106 338.0 1006.0Q310 906 310 776V682Q310 551 338.0 450.5Q366 350 418.5 281.5Q471 213 543.5 178.0Q616 143 706 143Q800 143 873.0 178.0Q946 213 996.5 281.5Q1047 350 1073.0 450.5Q1099 551 1099 682Z" transform="translate(429.599,246.385) scale(0.032184,-0.032184)"/>
  <path fill="#0E0E12" d="M707 1456V0H517V1456ZM1175 1456V1298H50V1456Z" transform="translate(474.946,246.385) scale(0.032184,-0.032184)"/>
  <path fill="#0E0E12" d="M376 1456V0H183V1456Z" transform="translate(514.275,246.385) scale(0.032184,-0.032184)"/>
  <path fill="#0E0E12" d="M1048 463H1240Q1225 325 1161.0 216.0Q1097 107 980.0 43.5Q863 -20 688 -20Q560 -20 455.5 28.0Q351 76 276.0 164.5Q201 253 160.5 377.5Q120 502 120 655V800Q120 953 160.5 1077.5Q201 1202 277.5 1291.0Q354 1380 462.0 1428.0Q570 1476 705 1476Q870 1476 984.0 1414.0Q1098 1352 1161.5 1242.5Q1225 1133 1240 989H1048Q1034 1091 996.0 1164.5Q958 1238 888.0 1278.0Q818 1318 705 1318Q608 1318 534.5 1281.0Q461 1244 411.5 1176.0Q362 1108 337.0 1013.0Q312 918 312 802V655Q312 548 334.5 454.0Q357 360 403.0 289.0Q449 218 520.0 177.5Q591 137 688 137Q811 137 884.0 176.0Q957 215 994.5 288.0Q1032 361 1048 463Z" transform="translate(532.202,246.385) scale(0.032184,-0.032184)"/>
  <path fill="#0E0E12" d="M945 368Q945 419 929.5 458.5Q914 498 875.5 530.0Q837 562 769.5 591.0Q702 620 599 650Q491 682 404.0 721.5Q317 761 255.0 812.0Q193 863 160.0 929.0Q127 995 127 1080Q127 1165 162.0 1237.0Q197 1309 262.5 1362.5Q328 1416 419.0 1446.0Q510 1476 622 1476Q786 1476 900.5 1413.5Q1015 1351 1075.0 1250.5Q1135 1150 1135 1036H943Q943 1118 908.0 1181.5Q873 1245 802.0 1281.5Q731 1318 622 1318Q519 1318 452.0 1287.0Q385 1256 352.5 1203.0Q320 1150 320 1082Q320 1036 339.5 998.5Q359 961 400.5 929.0Q442 897 506.5 870.0Q571 843 661 818Q785 783 875.0 740.0Q965 697 1023.5 643.5Q1082 590 1110.5 522.5Q1139 455 1139 370Q1139 281 1103.0 209.0Q1067 137 1000.0 86.0Q933 35 839.5 7.5Q746 -20 631 -20Q530 -20 432.5 8.0Q335 36 255.5 92.0Q176 148 128.5 230.5Q81 313 81 422H273Q273 347 302.0 293.5Q331 240 381.5 205.0Q432 170 496.5 153.5Q561 137 631 137Q732 137 802.0 165.0Q872 193 908.5 245.0Q945 297 945 368Z" transform="translate(575.103,246.385) scale(0.032184,-0.032184)"/>
</svg>
